<svg width="16" height="16" viewBox="0 0 16 16" fill="none" xmlns="http://www.w3.org/2000/svg">
<path d="M14.8243 6.82355H10.8375L13.6568 4.00454C14.1155 3.54584 14.1155 2.80169 13.6568 2.34217C13.198 1.88347 12.4538 1.88347 11.9942 2.34217L9.17492 5.16118V1.17562C9.17492 0.526348 8.64851 0 7.99917 0C7.34983 0 6.82343 0.526348 6.82343 1.17562V5.16201L4.00495 2.34299C3.5462 1.88429 2.80198 1.88429 2.34241 2.34299C1.88366 2.80169 1.88366 3.54584 2.34241 4.00536L5.16172 6.82438H1.17574C0.526403 6.82438 0 7.35073 0 8C0 8.64927 0.526403 9.17562 1.17574 9.17562H5.16254L2.34323 11.9946C1.88449 12.4533 1.88449 13.1975 2.34323 13.657C2.57261 13.8864 2.87376 14.001 3.17409 14.001C3.47442 14.001 3.77558 13.8864 4.00495 13.657L6.82426 10.838V14.8244C6.82426 15.4737 7.35066 16 8 16C8.64934 16 9.17574 15.4737 9.17574 14.8244V10.838L11.995 13.657C12.2244 13.8864 12.5256 14.001 12.8259 14.001C13.1262 14.001 13.4274 13.8864 13.6568 13.657C14.1155 13.1983 14.1155 12.4542 13.6568 11.9946L10.8375 9.17562H14.8243C15.4736 9.17562 16 8.64927 16 8C16 7.35073 15.4736 6.82438 14.8243 6.82438V6.82355Z" fill="currentColor"/>
</svg>
