<svg width="16" height="16" viewBox="0 0 16 16" fill="none" xmlns="http://www.w3.org/2000/svg">
<path d="M4.73929 12.5575L4.4229 13.9855L5.65844 13.2028L8.00127 11.7185L10.3644 13.2039L11.5965 13.9784L11.2817 12.5575L10.6488 9.70105L12.7019 7.8273L13.7161 6.90172L12.3491 6.77271L9.65441 6.5184L8.56389 3.81715L8 2.42038L7.43611 3.81715L6.34559 6.5184L3.65086 6.77271L2.27554 6.90251L3.3001 7.82914L5.37178 9.70283L4.73929 12.5575ZM3.97337 14.7014L4.96864 10.2204L5.04515 9.87594L4.78408 9.63859L1.42984 6.58903L5.80616 6.18311L6.17527 6.14887L6.31395 5.8051L7.99887 1.6283L9.68573 5.82671L9.82475 6.17272L10.1962 6.20572L14.5648 6.59391L11.2159 9.63859L10.9549 9.87594L11.0314 10.2204L12.0266 14.7014L8.32585 12.3527L8 12.1459L7.67415 12.3527L3.97337 14.7014Z" stroke="currentColor" stroke-width="1.21622"/>
</svg>
